<svg width="14" height="14" viewBox="0 0 14 14" fill="none" xmlns="http://www.w3.org/2000/svg">
<path d="M7.94006 7.00001L13.4667 1.47334C13.5759 1.34581 13.633 1.18176 13.6265 1.01397C13.6201 0.846187 13.5505 0.687028 13.4318 0.568298C13.313 0.449568 13.1539 0.380013 12.9861 0.373532C12.8183 0.367052 12.6543 0.424123 12.5267 0.53334L7.00006 6.06001L1.4734 0.526673C1.34786 0.401138 1.1776 0.330612 1.00006 0.330612C0.822529 0.330612 0.652266 0.401138 0.52673 0.526673C0.401194 0.652209 0.330669 0.822472 0.330669 1.00001C0.330669 1.17754 0.401194 1.3478 0.52673 1.47334L6.06006 7.00001L0.52673 12.5267C0.456942 12.5864 0.400262 12.66 0.360247 12.7427C0.320231 12.8254 0.297744 12.9155 0.294198 13.0073C0.290652 13.0991 0.306122 13.1907 0.339638 13.2762C0.373155 13.3618 0.423994 13.4395 0.488963 13.5044C0.553933 13.5694 0.631631 13.6202 0.717181 13.6538C0.802731 13.6873 0.894286 13.7028 0.986099 13.6992C1.07791 13.6957 1.168 13.6732 1.25071 13.6332C1.33342 13.5931 1.40697 13.5365 1.46673 13.4667L7.00006 7.94001L12.5267 13.4667C12.6543 13.5759 12.8183 13.633 12.9861 13.6265C13.1539 13.62 13.313 13.5504 13.4318 13.4317C13.5505 13.313 13.6201 13.1538 13.6265 12.986C13.633 12.8183 13.5759 12.6542 13.4667 12.5267L7.94006 7.00001Z" fill="#727272"/>
</svg>
