<svg width="37" height="36" viewBox="0 0 37 36" fill="none" xmlns="http://www.w3.org/2000/svg">
<path d="M18.5 27.39C19.2346 27.39 19.83 26.7945 19.83 26.06C19.83 25.3255 19.2346 24.73 18.5 24.73C17.7655 24.73 17.17 25.3255 17.17 26.06C17.17 26.7945 17.7655 27.39 18.5 27.39Z" fill="#EF514F"/>
<path d="M18.5 22.61C18.2348 22.61 17.9804 22.5046 17.7929 22.3171C17.6054 22.1296 17.5 21.8752 17.5 21.61V9.61C17.5 9.34478 17.6054 9.09043 17.7929 8.90289C17.9804 8.71536 18.2348 8.61 18.5 8.61C18.7652 8.61 19.0196 8.71536 19.2071 8.90289C19.3946 9.09043 19.5 9.34478 19.5 9.61V21.61C19.5 21.8752 19.3946 22.1296 19.2071 22.3171C19.0196 22.5046 18.7652 22.61 18.5 22.61Z" fill="#EF514F"/>
<path d="M18.5 34C15.3355 34 12.2421 33.0616 9.61088 31.3035C6.9797 29.5454 4.92894 27.0466 3.71793 24.1229C2.50693 21.1993 2.19008 17.9823 2.80744 14.8786C3.42481 11.7749 4.94866 8.92393 7.1863 6.68629C9.42394 4.44865 12.2749 2.9248 15.3786 2.30744C18.4823 1.69007 21.6993 2.00692 24.6229 3.21793C27.5466 4.42893 30.0454 6.47969 31.8035 9.11088C33.5616 11.7421 34.5 14.8355 34.5 18C34.5 22.2435 32.8143 26.3131 29.8137 29.3137C26.8131 32.3143 22.7435 34 18.5 34ZM18.5 4C15.7311 4 13.0243 4.82109 10.722 6.35943C8.41974 7.89776 6.62532 10.0843 5.56569 12.6424C4.50607 15.2006 4.22882 18.0155 4.76901 20.7313C5.30921 23.447 6.64258 25.9416 8.60051 27.8995C10.5584 29.8574 13.053 31.1908 15.7687 31.731C18.4845 32.2712 21.2994 31.9939 23.8576 30.9343C26.4157 29.8747 28.6022 28.0803 30.1406 25.778C31.6789 23.4757 32.5 20.7689 32.5 18C32.5 14.287 31.025 10.726 28.3995 8.1005C25.774 5.475 22.213 4 18.5 4Z" fill="#EF514F"/>
</svg>
