<svg width="35" height="33" viewBox="0 0 35 33" fill="none" xmlns="http://www.w3.org/2000/svg">
<path d="M12.7499 32.25H26.9999C28.3141 32.25 29.4383 31.4584 29.9133 30.3183L34.6949 19.1558C34.8374 18.7917 34.9166 18.4117 34.9166 18V14.8334C34.9166 13.0917 33.4916 11.6667 31.7499 11.6667H21.7591L23.2633 4.43085L23.3108 3.92418C23.3108 3.27502 23.0416 2.67335 22.6141 2.24585L20.9358 0.583351L10.5016 11.0175C9.93159 11.5875 9.58325 12.3792 9.58325 13.25V29.0833C9.58325 30.825 11.0083 32.25 12.7499 32.25ZM12.7499 13.25L19.6216 6.37835L17.4999 14.8334H31.7499V18L26.9999 29.0833H12.7499V13.25ZM0.083252 13.25H6.41659V32.25H0.083252V13.25Z" fill="#69D3ED"/>
</svg>
